<?xml version="1.0" standalone="no"?>
<!DOCTYPE svg PUBLIC "-//W3C//DTD SVG 20010904//EN"
 "http://www.w3.org/TR/2001/REC-SVG-20010904/DTD/svg10.dtd">
<svg version="1.0" xmlns="http://www.w3.org/2000/svg"
 width="1024.000000pt" height="1024.000000pt" viewBox="0 0 1024.000000 1024.000000"
 preserveAspectRatio="xMidYMid meet">

<g transform="translate(0.000000,1024.000000) scale(0.100000,-0.100000)"
fill="#000000" stroke="none">
<path d="M4855 10104 c-11 -1 -87 -8 -170 -14 -82 -7 -206 -20 -275 -31 -69
-11 -141 -22 -160 -25 -219 -32 -642 -145 -895 -239 -38 -14 -85 -31 -102 -36
-18 -5 -33 -14 -33 -19 0 -6 -9 -10 -20 -10 -27 0 -100 -30 -100 -41 0 -5 -11
-9 -24 -9 -14 0 -31 -7 -40 -15 -8 -8 -20 -15 -28 -15 -16 0 -122 -52 -126
-62 -2 -5 -9 -8 -16 -8 -19 0 -168 -76 -195 -99 -13 -12 -33 -21 -43 -21 -10
0 -21 -7 -24 -15 -4 -8 -12 -15 -19 -15 -16 0 -105 -50 -105 -59 0 -4 -15 -12
-34 -19 -18 -7 -44 -22 -58 -35 -13 -12 -41 -30 -61 -39 -21 -10 -40 -25 -44
-34 -3 -9 -26 -24 -50 -35 -24 -10 -46 -26 -49 -34 -4 -9 -25 -25 -48 -36 -22
-10 -61 -37 -85 -59 -24 -22 -47 -40 -52 -40 -5 0 -14 -9 -21 -20 -7 -11 -18
-20 -24 -20 -6 0 -37 -25 -69 -55 -31 -30 -61 -55 -65 -55 -5 0 -25 -20 -46
-45 -20 -25 -42 -45 -49 -45 -6 0 -47 -39 -91 -86 -43 -48 -122 -130 -174
-183 -52 -53 -102 -109 -110 -125 -8 -16 -27 -38 -43 -49 -15 -12 -27 -26 -27
-33 0 -6 -22 -34 -50 -62 -27 -28 -50 -55 -50 -60 0 -11 -74 -111 -94 -125
-20 -16 -86 -109 -86 -123 0 -6 -14 -26 -30 -44 -34 -38 -80 -116 -80 -135 0
-7 -6 -15 -14 -18 -16 -6 -86 -128 -86 -150 0 -9 -11 -28 -23 -44 -13 -15 -27
-40 -31 -55 -3 -15 -15 -35 -25 -45 -20 -20 -57 -95 -65 -135 -3 -15 -12 -33
-20 -40 -18 -18 -56 -106 -56 -129 0 -11 -4 -19 -8 -19 -9 0 -18 -21 -64 -135
-11 -27 -27 -65 -35 -84 -8 -19 -18 -57 -24 -84 -5 -28 -13 -53 -17 -56 -8 -6
-28 -66 -81 -245 -12 -37 -21 -83 -21 -101 0 -18 -4 -35 -10 -37 -11 -3 -50
-186 -50 -235 0 -18 -4 -33 -9 -33 -5 0 -11 -19 -14 -42 -2 -24 -11 -88 -20
-143 -38 -236 -46 -389 -43 -775 2 -226 8 -402 15 -444 6 -37 14 -99 16 -136
2 -38 8 -86 14 -107 6 -21 15 -71 21 -112 6 -41 14 -79 19 -85 9 -11 18 -59
26 -134 2 -24 11 -57 19 -74 9 -17 16 -44 16 -60 0 -16 9 -54 20 -85 11 -32
20 -65 20 -75 0 -10 4 -18 8 -18 7 0 27 -58 65 -195 6 -22 21 -60 34 -84 13
-24 23 -51 23 -61 0 -9 16 -47 35 -86 19 -38 35 -79 35 -91 0 -13 4 -23 9 -23
9 0 26 -38 35 -82 3 -15 12 -33 20 -41 19 -18 116 -213 116 -231 0 -8 6 -19
13 -23 17 -11 107 -169 107 -188 0 -9 7 -18 15 -21 8 -4 15 -13 15 -21 0 -8 9
-25 20 -37 11 -11 51 -66 88 -121 67 -99 68 -100 106 -98 21 2 44 7 50 12 7 6
32 13 56 17 25 4 50 10 55 15 6 4 31 11 55 15 25 3 72 14 105 24 33 10 83 23
110 28 28 6 114 26 193 46 78 19 172 38 207 41 36 4 65 11 65 16 0 5 18 9 40
9 21 0 59 6 82 14 24 8 68 18 98 21 30 3 98 15 150 25 52 10 122 24 155 30 33
6 98 16 145 20 47 5 111 16 143 25 32 8 79 15 105 15 26 0 66 5 90 10 24 6 80
15 125 20 45 5 118 14 162 20 98 13 210 27 332 39 50 6 118 15 150 20 32 6
130 15 218 21 88 6 203 15 255 20 52 6 185 15 296 20 110 5 223 11 250 15 63
7 685 27 1014 31 l255 4 -135 -35 c-74 -19 -143 -35 -152 -35 -10 0 -18 -4
-18 -9 0 -4 -23 -11 -51 -14 -28 -4 -57 -11 -63 -17 -7 -5 -66 -19 -132 -30
-65 -11 -141 -27 -169 -34 -60 -17 -202 -53 -265 -67 -25 -6 -68 -17 -97 -25
-28 -9 -77 -19 -110 -24 -84 -13 -185 -36 -256 -59 -34 -11 -95 -25 -134 -32
-40 -7 -73 -16 -73 -21 0 -4 -12 -8 -27 -8 -16 0 -73 -12 -128 -26 -55 -14
-112 -28 -127 -31 -16 -3 -28 -9 -28 -13 0 -5 -34 -14 -75 -21 -41 -7 -75 -17
-75 -21 0 -4 -13 -8 -28 -8 -15 0 -32 -4 -37 -9 -11 -11 -159 -51 -187 -51
-10 0 -18 -4 -18 -10 0 -5 -11 -10 -25 -10 -14 0 -42 -9 -62 -20 -21 -11 -48
-20 -60 -20 -13 0 -40 -9 -60 -20 -21 -11 -43 -20 -48 -20 -6 0 -29 -9 -51
-19 -21 -11 -66 -26 -98 -35 -33 -8 -62 -19 -65 -24 -3 -5 -21 -13 -38 -17
-18 -3 -33 -11 -33 -16 0 -5 -12 -12 -26 -15 -14 -4 -49 -19 -77 -35 -29 -16
-61 -29 -73 -29 -11 0 -30 -9 -41 -19 -11 -11 -47 -33 -80 -50 -33 -16 -84
-44 -112 -60 -29 -17 -58 -31 -66 -31 -8 0 -18 -6 -22 -13 -10 -16 -106 -77
-121 -77 -7 0 -12 -4 -12 -9 0 -10 -105 -81 -120 -81 -5 0 -10 -3 -10 -8 0 -9
-105 -92 -117 -92 -5 0 -19 -14 -32 -31 -12 -16 -30 -33 -40 -37 -29 -12 -144
-141 -138 -156 3 -7 45 -44 94 -81 48 -38 95 -75 103 -84 8 -9 28 -23 43 -31
16 -8 44 -29 62 -46 19 -17 54 -41 79 -53 24 -12 47 -28 50 -36 3 -8 12 -15
20 -15 9 0 39 -15 68 -34 163 -104 498 -277 668 -346 30 -12 69 -28 85 -35 17
-7 53 -20 80 -30 28 -10 54 -22 60 -26 5 -5 18 -9 30 -9 11 0 32 -6 47 -14 15
-8 42 -17 60 -21 18 -4 47 -13 63 -20 17 -7 77 -26 135 -41 58 -16 107 -32
108 -36 2 -4 12 -8 23 -8 10 0 38 -4 61 -10 262 -61 567 -112 796 -131 137
-12 553 -14 697 -4 168 11 447 45 505 60 30 9 86 18 123 22 37 3 70 10 73 14
3 5 25 9 50 9 24 0 44 4 44 9 0 4 23 11 51 14 28 4 56 10 63 16 6 5 38 14 71
21 33 7 74 18 90 25 17 7 55 19 85 26 30 7 59 16 65 21 5 4 21 8 35 8 14 0 34
6 45 14 11 7 34 16 50 19 39 7 118 36 125 46 3 4 28 16 55 26 28 10 82 33 122
52 40 18 81 33 92 33 11 0 26 6 33 13 7 7 83 49 168 94 189 98 241 126 254
136 46 34 200 127 211 127 8 0 19 9 25 19 5 11 19 23 30 26 11 4 32 17 47 31
14 13 29 24 33 24 5 0 21 11 36 24 16 13 97 78 179 144 83 66 159 129 169 141
11 11 22 21 25 21 8 0 401 390 401 398 0 4 24 35 53 68 30 34 75 88 100 120
25 33 55 65 67 72 11 7 20 18 20 26 0 15 97 147 117 159 7 4 13 13 13 19 0 14
61 108 71 108 4 0 10 11 13 24 3 13 17 34 31 47 13 13 25 31 25 40 0 9 7 19
15 23 8 3 15 14 15 25 0 10 7 21 15 25 8 3 15 14 15 25 0 10 7 21 15 25 8 3
15 15 15 26 0 11 5 20 10 20 6 0 10 7 10 15 0 8 3 15 8 15 4 0 13 15 20 33 29
72 108 231 125 250 10 11 24 45 33 74 8 29 19 53 24 53 5 0 12 15 15 32 4 18
12 36 17 39 5 3 14 25 19 48 8 38 36 108 60 153 16 31 39 102 39 123 0 11 9
37 20 58 11 20 20 48 20 62 0 14 4 25 9 25 4 0 11 23 14 52 4 28 12 55 18 59
6 3 14 28 16 55 3 27 10 55 15 61 6 7 14 39 18 70 5 32 17 94 28 138 26 104
54 266 58 335 2 30 9 84 14 120 19 111 21 805 3 940 -8 63 -14 131 -14 151 1
19 -8 82 -19 140 -11 57 -20 116 -20 132 0 15 -4 27 -10 27 -5 0 -10 20 -10
44 0 25 -5 57 -11 73 -6 15 -13 47 -14 71 -2 23 -11 56 -19 74 -9 17 -16 43
-16 57 0 29 -53 219 -69 248 -5 10 -13 35 -16 56 -3 20 -10 37 -15 37 -5 0
-12 17 -15 38 -6 40 -35 124 -65 187 -10 22 -21 52 -24 68 -4 15 -11 27 -16
27 -6 0 -10 6 -10 13 0 6 -11 34 -25 61 -14 27 -25 57 -25 66 0 9 -9 27 -20
40 -11 13 -23 35 -26 49 -7 33 -64 151 -73 151 -4 0 -21 28 -37 63 -16 34 -32
64 -36 65 -5 2 -8 12 -8 23 0 10 -8 27 -19 38 -10 10 -21 29 -24 42 -4 13 -18
36 -32 51 -14 15 -25 34 -25 43 0 9 -7 18 -15 21 -8 4 -15 14 -15 23 0 9 -16
34 -35 55 -19 22 -35 45 -35 51 0 7 -11 24 -25 39 -14 15 -25 31 -25 35 0 4
-12 21 -27 37 -44 46 -103 126 -103 140 0 7 -9 19 -21 27 -28 20 -159 179
-159 194 0 6 -20 28 -45 49 -25 20 -45 41 -45 48 0 14 -262 276 -277 276 -6 0
-39 27 -73 60 -34 33 -64 60 -67 60 -10 0 -142 114 -147 127 -3 7 -12 13 -20
13 -7 0 -16 7 -20 15 -3 8 -12 15 -20 15 -7 0 -16 7 -20 15 -3 8 -12 15 -20
15 -8 0 -27 13 -43 28 -32 32 -172 132 -185 132 -4 0 -17 9 -28 20 -11 11 -27
20 -35 20 -8 0 -15 5 -15 11 0 5 -21 20 -47 31 -27 11 -50 24 -53 27 -12 17
-70 51 -84 51 -9 0 -24 9 -33 20 -10 11 -23 20 -30 20 -18 0 -103 43 -103 52
0 10 -142 78 -163 78 -8 0 -22 6 -29 13 -15 15 -143 78 -205 101 -21 8 -63 24
-93 35 -177 70 -352 128 -545 181 -44 12 -105 28 -134 37 -30 8 -78 19 -105
23 -28 4 -85 15 -126 23 -140 29 -255 47 -375 57 -66 6 -165 15 -220 20 -89 8
-570 12 -620 4z m729 -543 c45 -6 135 -18 200 -27 66 -8 127 -19 137 -25 10
-5 33 -9 51 -9 18 0 60 -7 93 -16 33 -8 82 -19 108 -24 93 -17 413 -114 492
-149 11 -5 49 -19 85 -32 36 -12 97 -38 136 -56 39 -18 74 -33 78 -33 36 0
576 -297 584 -321 2 -5 9 -9 15 -9 28 0 328 -220 481 -354 241 -210 612 -612
646 -700 5 -14 13 -26 18 -26 11 0 102 -127 102 -143 0 -6 10 -22 23 -33 28
-27 177 -276 177 -296 0 -9 7 -21 16 -29 19 -15 118 -211 128 -253 4 -15 14
-35 21 -43 8 -8 15 -23 15 -33 0 -10 5 -22 10 -25 6 -3 10 -17 10 -29 0 -13 7
-29 15 -36 8 -7 15 -23 15 -36 0 -13 4 -24 10 -24 5 0 12 -16 16 -35 3 -19 10
-38 15 -41 5 -3 9 -18 9 -33 0 -15 7 -36 15 -47 8 -10 15 -31 15 -45 0 -14 7
-34 15 -45 8 -10 15 -29 15 -41 0 -12 5 -25 10 -28 6 -3 10 -19 10 -34 0 -15
6 -47 14 -72 8 -24 17 -61 21 -81 3 -21 10 -38 14 -38 5 0 12 -29 16 -65 3
-36 11 -65 16 -65 5 0 9 -17 9 -37 0 -21 5 -56 11 -78 6 -22 10 -51 10 -64 -1
-13 8 -77 19 -141 11 -64 20 -145 20 -179 0 -34 4 -61 10 -61 7 0 10 -118 9
-340 0 -204 -4 -340 -10 -340 -5 0 -9 -26 -9 -57 0 -60 -29 -274 -55 -398 -8
-38 -20 -104 -27 -145 -6 -41 -15 -78 -20 -81 -5 -3 -11 -30 -15 -60 -3 -30
-10 -57 -15 -60 -5 -3 -12 -26 -15 -50 -3 -24 -9 -48 -13 -54 -4 -5 -10 -27
-14 -47 -4 -21 -11 -38 -16 -38 -6 0 -10 -9 -10 -19 0 -10 -9 -38 -20 -62 -11
-24 -20 -56 -20 -71 0 -14 -5 -28 -11 -30 -6 -2 -17 -28 -25 -58 -8 -30 -19
-57 -24 -58 -6 -2 -13 -21 -16 -43 -4 -21 -10 -39 -14 -39 -9 0 -30 -47 -30
-69 0 -10 -9 -28 -20 -41 -11 -13 -20 -29 -20 -37 0 -8 -8 -26 -18 -41 -10
-15 -23 -36 -29 -47 -9 -18 -20 -20 -94 -20 -116 1 -714 23 -939 35 -102 6
-264 11 -360 11 -191 1 -250 6 -250 20 0 5 7 9 15 9 7 0 18 7 22 15 5 8 36 43
71 78 34 36 62 70 62 76 0 7 14 38 31 70 40 78 54 172 39 259 -6 36 -16 75
-23 86 -6 12 -10 25 -9 30 3 8 -15 38 -46 79 -33 43 -160 167 -171 167 -6 0
-11 4 -11 9 0 5 -33 22 -72 37 -94 36 -239 40 -330 9 -32 -10 -58 -23 -58 -27
0 -4 -9 -8 -20 -8 -11 0 -23 -7 -26 -15 -4 -8 -14 -15 -24 -15 -10 0 -29 -15
-43 -32 -14 -18 -43 -52 -66 -75 -23 -23 -41 -47 -41 -53 0 -6 -8 -20 -19 -31
-24 -26 -61 -164 -61 -230 0 -54 32 -187 48 -198 4 -3 18 -24 31 -46 33 -57
122 -165 137 -165 6 0 14 -6 17 -12 3 -10 -176 -12 -882 -9 -547 2 -989 -1
-1156 -8 -148 -6 -448 -13 -665 -16 -217 -3 -465 -10 -550 -16 -85 -5 -261
-14 -390 -19 -129 -5 -280 -14 -335 -20 -55 -6 -181 -15 -280 -20 -99 -6 -225
-15 -280 -21 -55 -5 -160 -14 -232 -19 -138 -9 -317 -28 -588 -60 -145 -18
-239 -25 -273 -21 -7 0 -22 22 -34 49 -61 137 -83 182 -90 182 -5 0 -8 9 -8
20 0 11 -4 20 -10 20 -5 0 -14 18 -20 41 -6 22 -29 75 -50 117 -21 43 -41 94
-44 114 -4 21 -13 44 -21 52 -8 8 -15 25 -15 38 0 13 -9 43 -20 67 -11 24 -20
49 -20 57 0 8 -4 14 -9 14 -6 0 -13 20 -17 45 -3 25 -10 48 -15 51 -5 3 -9 20
-9 38 0 18 -7 41 -15 52 -8 10 -15 34 -15 52 0 19 -6 48 -14 65 -16 37 -24 69
-35 148 -5 31 -13 79 -19 105 -20 89 -52 338 -52 407 0 38 -4 67 -10 67 -6 0
-10 108 -10 305 0 168 4 305 9 305 4 0 11 46 14 103 6 109 23 225 62 429 14
69 25 138 25 152 0 14 4 26 9 26 6 0 13 21 16 48 3 26 12 63 20 82 7 19 21 70
30 113 10 42 21 77 26 77 5 0 9 10 9 23 0 31 29 118 46 138 8 8 14 28 14 42 0
15 4 27 9 27 5 0 11 14 15 31 3 16 13 37 21 45 8 9 15 24 15 35 0 11 7 27 15
35 8 9 15 25 15 37 0 27 121 279 148 307 11 12 22 34 25 49 3 16 12 35 20 43
8 8 17 23 21 35 4 12 13 24 21 27 8 3 15 13 15 22 0 19 106 186 126 197 8 4
14 14 14 21 0 8 32 58 71 112 231 320 555 648 884 894 152 114 356 250 376
250 8 0 24 11 37 25 13 13 39 30 58 37 19 6 34 15 34 18 0 3 37 24 83 45 45
22 84 42 87 45 12 13 178 88 208 94 17 4 32 12 32 17 0 5 9 9 19 9 11 0 22 4
25 9 3 4 27 16 53 25 26 10 62 24 80 32 17 8 40 14 52 14 12 0 21 4 21 9 0 4
21 14 48 21 26 7 61 18 77 25 47 21 235 75 259 75 12 0 26 4 31 9 6 6 41 15
79 21 38 6 77 15 86 20 9 5 50 13 91 19 41 5 106 17 144 25 39 9 88 16 111 16
22 0 67 5 99 11 32 6 94 14 139 17 124 11 750 5 840 -7z m1707 -5562 c44 -22
109 -93 109 -119 0 -11 5 -20 10 -20 14 0 13 -139 -2 -181 -6 -19 -27 -55 -47
-80 -50 -64 -102 -84 -211 -83 -125 1 -162 25 -222 144 -17 34 -17 222 0 228
7 2 19 19 27 38 10 24 27 39 62 56 26 12 50 25 53 29 16 22 170 14 221 -12z"/>
<path d="M3697 8703 c-2 -4 -8 -26 -12 -48 -3 -22 -23 -85 -42 -140 -20 -55
-38 -115 -40 -132 -3 -18 -9 -33 -13 -33 -4 0 -13 -15 -20 -32 -7 -18 -23 -55
-35 -83 -12 -27 -25 -62 -28 -76 -4 -14 -16 -36 -27 -49 -11 -13 -20 -31 -20
-41 0 -10 -9 -26 -19 -36 -10 -10 -34 -47 -52 -83 -19 -35 -42 -73 -51 -82
-10 -10 -18 -25 -18 -33 0 -8 -4 -15 -9 -15 -5 0 -19 -20 -31 -46 -12 -25 -33
-52 -46 -61 -13 -8 -24 -21 -24 -28 0 -7 -7 -15 -15 -19 -8 -3 -15 -11 -15
-19 0 -7 -13 -23 -30 -35 -16 -13 -30 -27 -30 -33 0 -6 -33 -41 -72 -79 -47
-44 -69 -72 -63 -78 24 -22 88 -34 208 -39 70 -3 127 -10 127 -14 0 -5 -9 -18
-20 -29 -11 -11 -20 -29 -20 -39 0 -10 -7 -21 -15 -25 -8 -3 -15 -15 -15 -26
0 -11 -7 -23 -15 -26 -8 -4 -15 -13 -15 -21 0 -7 -11 -24 -24 -36 -13 -12 -26
-32 -30 -45 -4 -12 -16 -27 -27 -32 -10 -6 -19 -16 -19 -23 0 -7 -9 -18 -20
-25 -11 -7 -20 -18 -20 -25 0 -7 -9 -18 -20 -25 -11 -7 -20 -19 -20 -27 0 -18
-178 -205 -196 -205 -7 0 -28 -18 -45 -40 -18 -22 -38 -40 -45 -40 -6 0 -19
-11 -28 -25 l-16 -24 57 -18 c67 -21 259 -24 296 -5 37 19 132 40 136 30 4
-13 -20 -68 -30 -68 -5 0 -9 -7 -9 -15 0 -8 -9 -23 -20 -32 -11 -10 -20 -25
-20 -34 0 -9 -11 -28 -25 -43 -14 -15 -25 -31 -25 -35 0 -31 -269 -331 -296
-331 -8 0 -21 -11 -30 -25 -9 -14 -22 -25 -28 -25 -7 0 -29 -16 -50 -35 -21
-19 -42 -35 -46 -35 -4 0 -19 -11 -34 -25 -15 -14 -33 -25 -41 -25 -8 0 -17
-5 -20 -10 -4 -6 -24 -19 -46 -30 -47 -24 -49 -34 -9 -50 17 -7 30 -16 30 -20
0 -8 27 -19 80 -31 19 -4 64 -15 100 -23 83 -20 159 -20 235 0 33 8 70 18 82
21 l22 5 -19 -53 c-11 -29 -23 -55 -27 -58 -5 -3 -17 -23 -27 -43 -11 -21 -23
-38 -27 -38 -5 0 -15 -16 -23 -35 -8 -19 -20 -35 -25 -35 -6 0 -21 -21 -33
-47 -13 -27 -50 -74 -85 -107 -46 -44 -60 -63 -52 -70 8 -8 13 -7 16 2 3 6 13
12 24 12 10 0 36 9 57 20 22 12 67 26 101 32 33 6 61 15 61 20 0 4 13 8 29 8
17 0 33 5 36 10 3 6 22 10 41 10 19 0 34 4 34 9 0 5 33 14 73 21 39 6 79 16
89 20 9 5 40 12 70 16 29 4 63 11 76 15 13 5 64 14 115 19 51 6 106 15 124 21
57 18 500 51 715 53 174 1 180 3 128 58 -16 17 -30 37 -30 44 0 8 -4 14 -8 14
-8 0 -42 52 -42 64 0 10 70 6 92 -5 28 -15 201 -14 258 1 25 6 65 15 90 20 53
9 110 30 128 47 10 10 8 16 -10 32 -12 12 -30 21 -40 21 -9 0 -22 9 -28 20 -6
11 -19 20 -28 20 -10 0 -47 27 -82 60 -35 33 -69 60 -76 60 -6 0 -19 11 -28
25 -9 14 -22 25 -29 25 -16 0 -177 161 -177 177 0 7 -11 20 -25 29 -14 9 -25
22 -25 30 0 8 -9 19 -20 26 -11 7 -20 18 -20 25 0 6 -9 18 -21 27 -26 18 -69
80 -69 100 0 8 -8 21 -18 28 -22 15 -77 107 -69 114 3 3 36 -3 74 -13 84 -22
344 -26 364 -5 7 6 23 12 36 12 13 0 23 3 23 6 0 11 -53 74 -62 74 -6 0 -19
11 -30 25 -11 14 -25 25 -32 25 -16 0 -187 175 -258 265 -30 39 -63 87 -73
107 -9 20 -28 49 -41 63 -13 14 -24 33 -24 41 0 8 -7 17 -15 21 -17 6 -43 50
-56 95 l-8 28 85 0 c47 0 117 8 157 17 40 9 75 16 80 15 4 -1 7 4 7 12 0 8
-36 48 -80 88 -44 40 -80 79 -80 85 0 7 -9 18 -21 25 -25 16 -169 205 -169
224 0 7 -13 28 -30 46 -16 18 -30 41 -30 51 0 9 -6 20 -14 23 -7 3 -22 24 -32
47 -10 23 -21 44 -25 47 -11 8 -49 88 -49 103 0 18 -23 67 -32 67 -5 0 -8 10
-8 23 0 12 -6 31 -14 42 -7 11 -17 35 -21 53 -3 17 -11 32 -16 32 -5 0 -9 7
-9 16 0 9 -11 48 -24 87 -13 40 -31 101 -41 137 -18 64 -38 100 -48 83z"/>
<path d="M6510 8685 c-6 -16 -18 -52 -25 -80 -17 -64 -43 -142 -60 -180 -14
-31 -34 -83 -67 -175 -11 -30 -24 -56 -29 -58 -5 -2 -9 -12 -9 -23 0 -10 -4
-19 -9 -19 -5 0 -12 -10 -16 -22 -12 -43 -38 -98 -47 -98 -4 0 -8 -7 -8 -15 0
-8 -8 -22 -18 -32 -18 -17 -33 -42 -63 -107 -8 -16 -26 -41 -40 -56 -15 -14
-29 -36 -33 -48 -4 -12 -20 -31 -37 -42 -16 -12 -29 -27 -29 -33 0 -7 -9 -18
-20 -25 -11 -7 -20 -18 -20 -25 0 -7 -13 -23 -30 -35 -16 -13 -30 -28 -30 -34
0 -16 -81 -98 -95 -98 -6 0 -22 -11 -34 -24 -33 -35 -15 -41 139 -40 103 1
144 5 172 17 47 21 68 21 68 1 0 -16 -89 -170 -113 -197 -7 -7 -18 -24 -26
-37 -30 -54 -125 -172 -157 -197 -19 -14 -34 -31 -34 -38 0 -19 -195 -200
-236 -220 -19 -9 -34 -20 -34 -25 0 -6 -5 -10 -11 -10 -16 0 -62 -51 -54 -59
24 -23 348 -43 370 -22 15 13 138 52 144 45 14 -14 -140 -244 -211 -316 -21
-21 -38 -42 -38 -47 0 -5 -22 -28 -50 -51 -27 -23 -50 -48 -50 -55 0 -14 -129
-135 -143 -135 -5 0 -34 -25 -63 -55 -30 -30 -59 -55 -65 -55 -16 0 -158 -93
-159 -104 0 -15 42 -46 65 -46 11 0 25 -4 30 -9 6 -5 51 -19 100 -32 146 -38
275 -26 397 37 32 17 48 18 48 3 0 -15 -59 -99 -97 -137 -18 -18 -39 -48 -47
-67 -8 -18 -24 -38 -35 -45 -12 -6 -21 -17 -21 -25 0 -8 -18 -33 -40 -55 -22
-22 -40 -44 -40 -50 0 -5 -13 -19 -30 -32 -16 -12 -30 -25 -30 -29 0 -3 23
-17 52 -29 28 -12 58 -28 65 -36 8 -8 24 -14 37 -14 12 0 31 -7 42 -15 10 -8
25 -15 32 -15 7 0 122 -53 255 -118 428 -208 486 -231 627 -242 327 -27 474
-42 545 -55 44 -8 109 -20 144 -25 59 -9 108 -22 323 -79 43 -11 86 -24 95
-30 22 -11 72 -16 93 -9 8 3 42 13 75 23 64 18 195 83 233 115 23 19 22 40 -2
40 -22 0 -149 69 -159 86 -5 9 -24 22 -42 30 -18 7 -68 41 -111 76 -97 76
-294 267 -294 284 0 7 -22 31 -49 53 -27 23 -56 56 -65 75 -9 19 -22 36 -30
39 -19 8 -165 227 -176 265 -8 29 -7 30 13 22 12 -5 59 -19 104 -30 88 -22
287 -28 298 -10 3 6 19 10 36 10 16 0 29 5 29 10 0 6 10 10 21 10 27 0 89 38
89 54 0 7 -18 21 -40 32 -22 10 -40 22 -40 27 0 4 -6 7 -14 7 -8 0 -16 7 -20
15 -3 8 -12 15 -21 15 -8 0 -15 4 -15 10 0 5 -16 17 -36 26 -20 9 -41 25 -47
36 -7 10 -18 18 -25 18 -15 0 -282 263 -282 278 0 5 -16 27 -35 48 -19 21 -45
57 -56 81 -11 24 -24 43 -28 43 -11 0 -91 143 -91 162 0 13 6 14 40 7 22 -5
58 -16 80 -25 54 -22 257 -16 313 9 l38 17 -37 45 c-21 25 -45 45 -53 45 -19
0 -291 273 -291 293 0 9 -11 23 -24 32 -26 17 -136 166 -136 184 0 6 -4 11
-10 11 -5 0 -10 9 -10 20 0 11 -7 23 -15 26 -8 4 -15 14 -15 25 0 10 -6 22
-14 26 -14 9 -36 45 -36 61 0 6 30 4 73 -4 99 -19 272 -17 289 3 11 14 1 27
-70 92 -45 43 -82 82 -82 88 0 6 -16 23 -35 37 -19 15 -35 31 -35 35 0 5 -16
26 -35 47 -20 21 -38 49 -42 62 -3 12 -13 27 -22 32 -10 5 -26 26 -37 46 -10
21 -26 45 -34 53 -8 9 -26 39 -40 66 -14 27 -31 56 -37 63 -7 7 -13 18 -13 25
0 18 -43 107 -52 107 -4 0 -8 7 -8 16 0 8 -7 22 -15 30 -8 9 -15 24 -15 35 0
10 -4 19 -10 19 -5 0 -10 13 -10 29 0 16 -6 34 -14 40 -8 6 -16 24 -19 39 -8
42 -66 205 -77 216 -6 6 -10 24 -10 41 0 17 -6 40 -14 51 -14 18 -15 18 -26
-11z"/>
<path d="M4119 5416 c-3 -3 -75 -10 -161 -15 -244 -16 -633 -79 -865 -142 -40
-10 -79 -19 -88 -19 -8 0 -43 -9 -77 -19 -35 -10 -99 -29 -143 -41 -44 -13
-134 -40 -200 -61 -66 -21 -151 -48 -190 -60 -38 -12 -97 -29 -130 -40 -305
-93 -516 -137 -704 -146 -167 -7 -181 -14 -181 -86 0 -24 5 -48 11 -54 7 -7 9
-52 5 -134 -9 -213 -20 -296 -43 -327 -41 -56 -63 -115 -63 -170 0 -60 31
-225 43 -230 4 -2 7 -14 7 -27 0 -71 93 -180 190 -223 30 -13 69 -30 85 -37
35 -16 151 -35 253 -42 39 -3 72 -9 72 -14 0 -5 27 -9 60 -9 59 0 75 11 51 36
-5 5 -17 53 -26 108 -14 83 -15 112 -5 190 7 50 16 100 20 111 5 11 14 37 20
57 27 88 168 258 240 290 17 7 30 16 30 19 0 6 67 36 130 59 98 35 310 36 411
1 73 -25 159 -69 159 -81 0 -6 7 -10 16 -10 9 0 49 -33 88 -72 75 -77 142
-189 150 -249 3 -19 12 -54 20 -79 10 -28 16 -79 16 -135 -1 -75 -6 -104 -31
-175 -17 -47 -33 -95 -36 -107 l-5 -22 1283 2 c706 1 1458 -2 1672 -7 346 -7
387 -7 387 7 0 9 -6 22 -13 29 -8 7 -17 30 -21 50 -4 20 -12 38 -18 40 -9 3
-13 54 -16 166 -4 134 -2 168 12 196 9 19 16 43 16 55 0 23 30 91 41 91 4 0 9
11 13 24 7 28 133 166 152 166 7 0 18 9 24 19 5 11 26 25 45 32 19 7 35 16 35
20 0 4 36 18 79 33 91 29 295 47 334 29 12 -6 47 -16 77 -23 30 -7 57 -16 60
-20 3 -3 31 -17 63 -29 32 -13 62 -32 68 -42 5 -11 15 -19 20 -19 14 0 113
-100 122 -122 3 -10 11 -18 17 -18 5 0 10 -7 10 -15 0 -8 5 -15 10 -15 6 0 10
-8 10 -19 0 -10 8 -29 19 -42 10 -13 21 -35 24 -49 13 -58 30 -116 36 -128 11
-24 -7 -245 -25 -292 -9 -25 -20 -58 -24 -75 -4 -16 -11 -38 -15 -47 -7 -17 9
-18 240 -18 349 0 401 11 516 112 48 42 44 118 -6 118 -8 0 -17 5 -20 10 -7
11 24 111 37 120 4 3 14 32 23 65 20 78 12 143 -29 215 -46 83 -200 230 -260
250 -20 6 -36 16 -36 20 0 12 -235 126 -279 135 -19 4 -40 13 -47 19 -6 7 -38
18 -70 26 -33 8 -61 17 -64 20 -3 4 -45 19 -95 35 -49 15 -109 34 -133 41 -23
8 -50 14 -58 14 -9 0 -46 9 -82 19 -148 42 -501 91 -662 91 -55 0 -133 8 -185
19 -85 19 -323 111 -335 132 -4 5 -32 18 -64 30 -62 21 -218 97 -226 109 -8
12 -153 80 -170 80 -9 0 -27 9 -40 20 -12 11 -38 22 -56 26 -19 3 -34 10 -34
15 0 4 -15 13 -32 18 -18 5 -64 22 -103 36 -38 15 -90 33 -115 40 -25 7 -56
17 -70 23 -78 30 -365 88 -507 103 -112 12 -655 24 -664 15z m501 -211 c30 -3
120 -13 200 -21 80 -9 149 -18 154 -21 5 -3 43 -12 86 -19 43 -8 99 -23 125
-34 25 -11 58 -20 71 -20 13 0 32 -4 42 -9 9 -5 45 -17 80 -27 35 -10 65 -21
68 -26 3 -4 13 -8 22 -8 9 0 30 -7 46 -15 15 -8 34 -15 40 -15 6 0 29 -9 51
-20 22 -11 43 -20 48 -20 5 0 15 -7 23 -15 9 -8 25 -15 36 -15 22 0 348 -155
348 -165 0 -13 -1342 4 -1630 20 -151 8 -327 17 -390 20 -146 8 -425 40 -557
65 -57 11 -115 20 -130 20 -16 0 -61 9 -100 20 -40 10 -111 22 -158 26 -70 6
-83 9 -74 20 6 8 17 14 25 14 7 0 19 6 26 13 17 17 82 47 101 47 9 0 19 5 22
10 3 6 17 10 31 10 13 0 24 5 24 10 0 6 11 10 24 10 13 0 43 9 67 20 24 11 55
20 70 20 14 0 29 4 35 10 5 5 42 14 83 20 40 5 81 15 91 20 10 6 36 10 57 10
21 0 92 9 158 20 66 11 149 20 185 21 36 0 74 4 85 9 21 10 420 6 515 -5z
m3311 -884 c30 -10 70 -24 89 -31 57 -20 230 -104 230 -111 0 -12 -153 -21
-195 -11 -27 6 -55 24 -87 57 -27 26 -48 51 -48 56 0 4 -11 16 -25 27 -22 18
-32 32 -22 32 2 0 28 -8 58 -19z"/>
<path d="M2551 4264 c-48 -13 -161 -72 -196 -104 -11 -9 -30 -23 -42 -29 -13
-6 -23 -18 -23 -26 0 -8 -11 -22 -25 -31 -14 -9 -42 -51 -63 -93 l-37 -76 0
-135 c0 -113 3 -143 20 -182 11 -27 23 -48 28 -48 4 0 7 -7 7 -16 0 -9 15 -32
33 -52 79 -90 134 -134 211 -172 82 -40 82 -40 201 -40 l120 1 96 47 c75 37
106 59 144 102 26 30 54 59 62 63 7 4 13 15 13 23 0 18 29 76 42 85 13 9 32
117 31 184 -1 84 -16 154 -41 195 -12 19 -22 41 -22 48 0 20 -129 149 -185
184 -27 18 -52 35 -55 38 -3 3 -30 14 -60 24 -64 23 -189 27 -259 10z m237
-263 c51 -27 110 -90 122 -132 6 -18 10 -68 10 -109 0 -67 -3 -81 -29 -121
-62 -93 -104 -120 -199 -127 -87 -6 -138 9 -191 55 -50 43 -101 140 -101 193
0 47 36 149 63 178 19 20 86 57 137 75 39 14 152 6 188 -12z"/>
</g>
</svg>
